<svg preserveAspectRatio="none" width="100%" height="100%" overflow="visible" style="display: block;" viewBox="0 0 72.5182 29" fill="none" xmlns="http://www.w3.org/2000/svg">
<g id="Vector">
<path d="M1.11175 9.70408V2.42219C1.11175 1.35643 0.912873 0.892376 0.346845 0.244759H4.68652C7.29739 0.244759 8.74035 1.47374 8.74035 3.21772C8.74035 4.41607 8.05715 5.34411 6.81291 5.79285C8.46 6.16001 9.37279 7.20541 9.37279 8.63323C9.37279 10.5251 7.82772 11.8764 5.06897 11.8764H0.382451C0.933181 11.2441 1.11175 10.7647 1.11175 9.69897V9.70408ZM3.03944 1.47372V5.34411H4.56925C5.98177 5.34411 6.84852 4.63023 6.84852 3.40129C6.84852 2.17235 5.98667 1.47372 4.62004 1.47372H3.03944ZM3.03944 6.52719V10.7137H5.03312C6.51193 10.7137 7.40949 9.84683 7.40949 8.58729C7.40949 7.32775 6.49669 6.52719 4.96689 6.52719H3.03944Z" fill="var(--fill-0, #B89362)"/>
<path d="M11.0861 2.37631C11.0861 1.36154 10.9178 0.846487 10.4385 0.249863H13.7122C13.2125 0.846487 13.0494 1.36154 13.0494 2.37631V7.52665C13.0494 9.60208 14.2935 10.6525 15.9253 10.6525C17.5571 10.6525 18.8014 9.60716 18.8014 7.51133V2.37631C18.8014 1.36154 18.6177 0.861785 18.1027 0.249863H20.9942C20.4792 0.866884 20.2956 1.36154 20.2956 2.37631V7.48077C20.2956 10.4537 18.3832 12.0855 15.6907 12.0855C12.9983 12.0855 11.0861 10.4588 11.0861 7.59804V2.37631Z" fill="var(--fill-0, #B89362)"/>
<path d="M22.417 11.8152L21.8866 9.13806C23.3654 10.316 24.579 10.882 25.7774 10.882C26.8227 10.882 27.6895 10.1987 27.6742 9.11764C27.6436 6.59346 22.121 7.07278 22.0751 3.23297C22.0241 1.4686 23.4062 0.0918157 25.3847 0.0918157C26.8329 0.0918157 27.6284 0.775121 28.5105 0.275385L28.9592 2.78422C27.7813 1.85104 26.5677 1.29015 25.5682 1.29015C24.5687 1.29015 23.8905 1.97347 23.8905 2.88625C23.9415 5.49712 29.4591 4.93111 29.5254 8.70462C29.5407 10.7138 27.9445 12.0293 25.8538 12.0293C24.1608 12.0293 23.3602 11.2339 22.4322 11.8152H22.417Z" fill="var(--fill-0, #B89362)"/>
<path d="M31.4071 9.74995V2.37121C31.4071 1.35644 31.2386 0.841383 30.744 0.244759H34.018C33.5183 0.841383 33.3704 1.35644 33.3704 2.37121V9.74995C33.3704 10.7647 33.5183 11.2798 34.018 11.8764H30.744C31.2437 11.2798 31.4071 10.7647 31.4071 9.74995Z" fill="var(--fill-0, #B89362)"/>
<path d="M45.4353 12.1263L37.6077 4.16619V4.20186L37.6587 9.75506C37.6587 10.7698 37.8424 11.2696 38.3574 11.8815H35.4661C35.9812 11.2645 36.18 10.7698 36.18 9.75506V0L43.9921 7.94476V7.87853L43.9565 2.37631C43.9412 1.36154 43.7729 0.861785 43.2578 0.249863H46.1339C45.6189 0.866884 45.4353 1.36154 45.4353 2.37631V12.1314V12.1263Z" fill="var(--fill-0, #B89362)"/>
<path d="M48.2399 9.70408V2.42219C48.2399 1.35643 48.041 0.892376 47.475 0.244759H55.0884L55.4554 2.5038C54.4101 1.78989 53.6606 1.5247 52.4317 1.5247H50.1726V5.29823H51.0702C51.983 5.29823 52.6509 5.04837 53.3138 4.73221L53.7625 7.0065C52.8141 6.60875 52.2175 6.45579 51.0191 6.45579H50.1726V10.6781H52.7325C53.8441 10.6781 54.7416 10.2803 55.7716 9.59701L55.4251 11.8713H47.5158C48.0666 11.239 48.2451 10.7596 48.2451 9.69387L48.2399 9.70408Z" fill="var(--fill-0, #B89362)"/>
<path d="M57.0007 11.8152L56.4703 9.13806C57.9491 10.316 59.1627 10.882 60.3611 10.882C61.4064 10.882 62.2734 10.1987 62.2581 9.11764C62.2224 6.59346 56.7049 7.07278 56.6591 3.23297C56.6081 1.4686 57.9899 0.0918157 59.9684 0.0918157C61.4166 0.0918157 62.2121 0.775121 63.0942 0.275385L63.5432 2.78422C62.3652 1.85104 61.1516 1.29015 60.1522 1.29015C59.1527 1.29015 58.4745 1.97347 58.4745 2.88625C58.5254 5.49712 64.0428 4.93111 64.1091 8.70462C64.1244 10.7138 62.5282 12.0293 60.4375 12.0293C58.7445 12.0293 57.9439 11.2339 57.0159 11.8152H57.0007Z" fill="var(--fill-0, #B89362)"/>
<path d="M65.4094 11.8152L64.879 9.13806C66.3578 10.316 67.5717 10.882 68.77 10.882C69.8154 10.882 70.6821 10.1987 70.6668 9.11764C70.6311 6.59346 65.1136 7.07278 65.0678 3.23297C65.0168 1.4686 66.3988 0.0918157 68.3773 0.0918157C69.8256 0.0918157 70.621 0.775121 71.5032 0.275385L71.9519 2.78422C70.7739 1.85104 69.5603 1.29015 68.5609 1.29015C67.5614 1.29015 66.8831 1.97347 66.8831 2.88625C66.9341 5.49712 72.4518 4.93111 72.5181 8.70462C72.5334 10.7138 70.9372 12.0293 68.8464 12.0293C67.1535 12.0293 66.3529 11.2339 65.4248 11.8152H65.4094Z" fill="var(--fill-0, #B89362)"/>
<path d="M0.530352 28.7196L0 26.0424C1.47881 27.2204 2.69265 27.7864 3.89099 27.7864C4.93636 27.7864 5.80311 27.1031 5.78781 26.022C5.75722 23.4978 0.23463 23.9771 0.188736 20.1373C0.137742 18.373 1.51979 16.9961 3.49833 16.9961C4.94655 16.9961 5.74199 17.6795 6.62417 17.1797L7.07286 19.6886C5.89491 18.7605 4.68131 18.1945 3.68184 18.1945C2.68237 18.1945 2.00413 18.8778 2.00413 19.7906C2.05513 22.4015 7.57252 21.8354 7.63882 25.6089C7.65411 27.6181 6.05817 28.9337 3.96743 28.9337C2.27445 28.9337 1.47387 28.1382 0.54579 28.7196H0.530352Z" fill="var(--fill-0, #B89362)"/>
<path d="M14.4415 16.9707C16.3691 16.9707 17.083 17.7202 17.9804 17.2511L18.3935 20.0608C17.4144 19.0461 16.2671 18.3474 14.8036 18.3474C12.4426 18.3474 10.7801 20.275 10.7801 22.9828C10.7801 25.8588 12.6414 27.6181 14.9004 27.6181C16.2619 27.6181 17.4451 27.0674 18.4241 26.3535L18.2558 27.9138C17.3226 28.5615 15.9968 28.9592 14.5996 28.9592C11.2443 28.9592 8.69952 26.5014 8.69952 23.044C8.69952 19.5866 11.2085 16.9604 14.4313 16.9604L14.4415 16.9707Z" fill="var(--fill-0, #B89362)"/>
<path d="M20.2751 26.6594V19.2807C20.2751 18.2659 20.107 17.7508 19.6123 17.1542H22.8861C22.3863 17.7508 22.2384 18.2659 22.2384 19.2807V22.172H27.3072V19.2807C27.3072 18.2659 27.1387 17.7508 26.6441 17.1542H29.9333C29.4335 17.7508 29.2705 18.2659 29.2705 19.2807V26.6594C29.2705 27.6742 29.4386 28.1892 29.9333 28.7859H26.6441C27.1438 28.1892 27.3072 27.6742 27.3072 26.6594V23.5029H22.2384V26.6594C22.2384 27.6742 22.3863 28.1892 22.8861 28.7859H19.6123C20.1121 28.1892 20.2751 27.6742 20.2751 26.6594Z" fill="var(--fill-0, #B89362)"/>
<path d="M37.0776 29C33.8548 29 31.2592 26.5064 31.2592 22.9675C31.2592 19.4285 33.8495 16.9349 37.1284 16.9349C40.4073 16.9349 42.9264 19.4285 42.9264 22.9675C42.9264 26.5064 40.3361 29 37.0776 29ZM37.0776 27.6385C39.2193 27.6385 40.8356 25.8945 40.8356 22.9828C40.8356 20.0711 39.2242 18.3322 37.1284 18.3322C35.0326 18.3322 33.3704 20.0609 33.3704 22.9828C33.3704 25.9047 34.9818 27.6385 37.0776 27.6385Z" fill="var(--fill-0, #B89362)"/>
<path d="M50.0043 29C46.7815 29 44.1861 26.5064 44.1861 22.9675C44.1861 19.4285 46.7765 16.9349 50.0503 16.9349C53.3241 16.9349 55.8533 19.4285 55.8533 22.9675C55.8533 26.5064 53.2627 29 50.0043 29ZM50.0043 27.6385C52.146 27.6385 53.7625 25.8945 53.7625 22.9828C53.7625 20.0711 52.1511 18.3322 50.0553 18.3322C47.9595 18.3322 46.297 20.0609 46.297 22.9828C46.297 25.9047 47.9084 27.6385 50.0043 27.6385Z" fill="var(--fill-0, #B89362)"/>
<path d="M57.8472 26.6084V19.2807C57.8472 18.2659 57.6788 17.7508 57.1842 17.1542H60.4938C59.9787 17.7712 59.8103 18.2659 59.8103 19.2807V27.5569H62.3194C63.431 27.5569 64.3795 27.1897 65.379 26.5115L65.0473 28.7859H57.1179C57.6483 28.1739 57.8472 27.6742 57.8472 26.6084Z" fill="var(--fill-0, #B89362)"/>
</g>
</svg>
