<svg preserveAspectRatio="none" width="100%" height="100%" overflow="visible" style="display: block;" viewBox="0 0 92.2987 12.07" fill="none" xmlns="http://www.w3.org/2000/svg">
<g id="Vector">
<path d="M0.760077 9.69352V2.45757C0.760077 1.39853 0.562457 0.937406 0 0.293874H4.32739C8.01123 0.293874 10.5347 2.70585 10.5347 5.98938C10.5347 9.45533 7.87442 11.8521 4.32739 11.8521H0.0353812C0.582637 11.2238 0.760077 10.7475 0.760077 9.68845V9.69352ZM2.7058 1.60118V10.5853H4.25638C6.69876 10.5853 8.4519 8.77129 8.4519 6.07555C8.4519 3.37981 6.69876 1.60118 4.25638 1.60118H2.7058Z" fill="var(--fill-0, #B89362)"/>
<path d="M12.5158 9.73911V2.40691C12.5158 1.39854 12.3487 0.886734 11.8572 0.293874H15.1102C14.6137 0.886734 14.4667 1.39854 14.4667 2.40691V9.73911C14.4667 10.7475 14.6137 11.2593 15.1102 11.8521H11.8572C12.3537 11.2593 12.5158 10.7475 12.5158 9.73911Z" fill="var(--fill-0, #B89362)"/>
<path d="M17.3195 9.73911V2.45757C17.3195 1.39853 17.1066 0.922205 16.5594 0.293874H20.9375C23.5471 0.293874 25.1484 1.66708 25.1484 3.71422C25.1484 5.76136 23.4459 7.23088 20.8363 7.23088H19.2654V9.73911C19.2654 10.7475 19.4326 11.2441 19.9444 11.8521H16.6559C17.1525 11.2593 17.3145 10.7475 17.3145 9.73911H17.3195ZM19.2704 1.58096V5.98938H20.6589C22.2449 5.98938 23.2026 5.14823 23.2026 3.77503C23.2026 2.40182 22.2448 1.58096 20.674 1.58096H19.2704Z" fill="var(--fill-0, #B89362)"/>
<path d="M27.0335 9.69352V2.41198C27.0335 1.40361 26.8661 0.891807 26.3746 0.298946H29.6633C29.1515 0.912075 28.9841 1.40361 28.9841 2.41198V10.636H31.4774C32.582 10.636 33.5245 10.2711 34.5177 9.59721L34.1881 11.8572H26.3088C26.8358 11.2441 27.0335 10.7526 27.0335 9.69352Z" fill="var(--fill-0, #B89362)"/>
<path d="M40.4563 12.07C37.2538 12.07 34.6746 9.59217 34.6746 6.07555C34.6746 2.55892 37.2487 0.0810304 40.5018 0.0810304C43.755 0.0810304 46.2685 2.55892 46.2685 6.07555C46.2685 9.59217 43.6942 12.07 40.4563 12.07ZM40.4563 10.7171C42.5845 10.7171 44.1909 8.98412 44.1909 6.09076C44.1909 3.1974 42.5896 1.46442 40.507 1.46442C38.4244 1.46442 36.7724 3.1822 36.7724 6.09076C36.7724 8.99932 38.3737 10.7171 40.4563 10.7171Z" fill="var(--fill-0, #B89362)"/>
<path d="M48.1838 0.0101443L53.7678 7.53997L59.2657 0.0101443V9.73911C59.2657 10.7475 59.4329 11.2593 59.9244 11.8521H56.6713C57.1679 11.2593 57.3299 10.7475 57.3299 9.73911L57.3806 5.01652V4.76817L57.1983 5.06718L53.4486 10.2205L49.6836 4.98609L49.552 4.77325V5.02153L49.6025 9.74418C49.6025 10.7525 49.7849 11.2492 50.2967 11.8572H47.4744C47.9862 11.2441 48.1838 10.7525 48.1838 9.74418V0.0101443Z" fill="var(--fill-0, #B89362)"/>
<path d="M63.3296 11.8572H60.5731C60.9531 11.3454 61.2671 10.7019 61.7941 9.56177L66.1369 0L70.4643 9.56177C70.9912 10.7019 71.3052 11.3454 71.6853 11.8572H68.4626C68.8427 11.2441 68.8579 10.636 68.4626 9.72896L68.118 8.93852H63.6439L63.2992 9.72896C62.9192 10.636 62.9547 11.2492 63.3296 11.8572ZM67.591 7.67679L65.8885 3.69901L64.1706 7.67679H67.591Z" fill="var(--fill-0, #B89362)"/>
<path d="M77.3151 0.111463C79.2305 0.111463 79.9399 0.856364 80.8317 0.390183L81.2422 3.1822C80.2693 2.17384 79.1291 1.47958 77.6748 1.47958C75.3287 1.47958 73.6768 3.39502 73.6768 6.08569C73.6768 8.94358 75.5263 10.6917 77.7711 10.6917C79.124 10.6917 80.2994 10.1445 81.2723 9.43509L81.1053 10.9856C80.178 11.6291 78.8604 12.0244 77.472 12.0244C74.1378 12.0244 71.6093 9.58204 71.6093 6.14649C71.6093 2.71094 74.1025 0.101319 77.305 0.101319L77.3151 0.111463Z" fill="var(--fill-0, #B89362)"/>
<path d="M85.8531 9.73911V7.34234L82.8331 2.38662C82.2047 1.34785 81.8399 0.800587 81.4295 0.288802H84.7486C84.3686 0.800587 84.3836 1.3276 84.8498 2.08768L87.1808 5.98431L89.4763 2.08768C89.9374 1.3276 89.9221 0.800587 89.5572 0.288802H92.2987C91.868 0.800587 91.488 1.34785 90.88 2.38662L87.8092 7.40822V9.73911C87.8092 10.7475 87.9916 11.2441 88.5186 11.8521H85.1843C85.6961 11.239 85.8632 10.7475 85.8632 9.73911H85.8531Z" fill="var(--fill-0, #B89362)"/>
</g>
</svg>
