<svg preserveAspectRatio="none" width="100%" height="100%" overflow="visible" style="display: block;" viewBox="0 0 109.093 29" fill="none" xmlns="http://www.w3.org/2000/svg">
<g id="Vector">
<path d="M0.901643 9.68874V2.36871C0.901643 1.30407 0.687696 0.825226 0.137547 0.193573H4.53881C7.1622 0.193573 8.77193 1.57404 8.77193 3.632C8.77193 5.68997 7.06022 7.16725 4.43683 7.16725H2.85765V9.68874C2.85765 10.7024 3.02592 11.2017 3.54041 11.8129H0.234303C0.733512 11.217 0.896668 10.7024 0.896668 9.68874H0.901643ZM2.86287 1.48746V5.91919H4.25849C5.8529 5.91919 6.81567 5.07359 6.81567 3.69313C6.81567 2.31266 5.85304 1.48746 4.27391 1.48746H2.86287Z" fill="var(--fill-0, white)"/>
<path d="M10.514 2.31778C10.514 1.30408 10.3459 0.789568 9.86708 0.193573H13.1374C12.6382 0.789568 12.4753 1.30408 12.4753 2.31778V7.46268C12.4753 9.53592 13.718 10.5853 15.3481 10.5853C16.9781 10.5853 18.2211 9.541 18.2211 7.44738V2.31778C18.2211 1.30408 18.0377 0.80485 17.5232 0.193573H20.4114C19.897 0.809944 19.7138 1.30408 19.7138 2.31778V7.41685C19.7138 10.3866 17.8034 12.0167 15.1138 12.0167C12.4242 12.0167 10.514 10.3917 10.514 7.534V2.31778Z" fill="var(--fill-0, white)"/>
<path d="M22.4187 9.63781V2.36361C22.4187 1.29897 22.22 0.835409 21.6546 0.188474H25.9894C28.5976 0.188474 30.0393 1.4161 30.0393 3.15824C30.0393 4.35532 29.3565 5.28245 28.1136 5.73072C29.7589 6.09748 30.6708 7.14178 30.6708 8.56809C30.6708 10.463 29.1273 11.8079 26.3715 11.8079H21.6902C22.2403 11.1762 22.4187 10.6974 22.4187 9.63272V9.63781ZM24.3441 1.42124V5.28754H25.8723C27.2833 5.28754 28.1494 4.57442 28.1494 3.34677C28.1494 2.11913 27.2885 1.42124 25.9233 1.42124H24.3441ZM24.3441 6.46932V10.6515H26.3359C27.8132 10.6515 28.7095 9.78551 28.7095 8.5273C28.7095 7.26909 27.7977 6.46932 26.2695 6.46932H24.3441Z" fill="var(--fill-0, white)"/>
<path d="M32.5251 9.63781V2.31778C32.5251 1.30408 32.357 0.789568 31.8629 0.193573H35.1688C34.6543 0.809944 34.4863 1.30408 34.4863 2.31778V10.5853H36.9925C38.103 10.5853 39.0504 10.2185 40.0489 9.541L39.7178 11.8129H31.7965C32.3263 11.1966 32.5251 10.7025 32.5251 9.63781Z" fill="var(--fill-0, white)"/>
<path d="M41.7094 9.68874V2.31778C41.7094 1.30408 41.5414 0.789568 41.0473 0.193573H44.3175C43.8183 0.789568 43.6706 1.30408 43.6706 2.31778V9.68874C43.6706 10.7024 43.8183 11.217 44.3175 11.8129H41.0473C41.5465 11.217 41.7094 10.7024 41.7094 9.68874Z" fill="var(--fill-0, white)"/>
<path d="M51.3675 0.0101979C53.293 0.0101979 54.0064 0.759036 54.903 0.290391L55.3153 3.09711C54.3373 2.08341 53.1914 1.38554 51.7294 1.38554C49.3709 1.38554 47.7102 3.31111 47.7102 6.01601C47.7102 8.88901 49.5695 10.6464 51.8262 10.6464C53.1863 10.6464 54.3679 10.0963 55.3459 9.38312L55.1778 10.9418C54.2456 11.5888 52.9212 11.9861 51.5255 11.9861C48.1736 11.9861 45.6318 9.53085 45.6318 6.07713C45.6318 2.62342 48.1381 0 51.3625 0L51.3675 0.0101979Z" fill="var(--fill-0, white)"/>
<path d="M0.00522331 22.9738C0.00522331 19.5201 2.4808 16.8967 5.89886 16.8967C7.8906 16.8967 8.53744 17.6455 9.5002 17.1769L9.91285 19.9989C8.88386 18.919 7.65638 18.2721 6.12819 18.2721C3.82062 18.2721 2.07838 20.0142 2.07838 22.9891C2.07838 25.694 3.85612 27.538 6.34707 27.538C7.11116 27.538 7.9058 27.4056 8.61896 27.1254V25.098C8.61896 24.0996 8.48658 23.636 8.0536 23.0706H10.9573C10.5243 23.687 10.4071 24.232 10.4071 25.2457V25.8926C10.4071 26.6567 10.5242 27.1866 10.7075 27.6705C9.42895 28.3836 7.71748 28.8828 6.10779 28.8828C2.53692 28.8828 0 26.4937 0 22.9738H0.00522331Z" fill="var(--fill-0, white)"/>
<path d="M17.8697 28.9185C14.6503 28.9185 12.0574 26.4276 12.0574 22.8923C12.0574 19.3571 14.6451 16.8661 17.9155 16.8661C21.1858 16.8661 23.7126 19.3571 23.7126 22.8923C23.7126 26.4276 21.1196 28.9185 17.8697 28.9185ZM17.8697 27.5584C20.0092 27.5584 21.624 25.8162 21.624 22.9076C21.624 19.9989 20.0143 18.2568 17.9207 18.2568C15.8271 18.2568 14.1664 19.9836 14.1664 22.9076C14.1664 25.8315 15.7761 27.5584 17.8697 27.5584Z" fill="var(--fill-0, white)"/>
<path d="M29.2393 29L24.8739 19.3877C24.3441 18.2415 24.0282 17.5946 23.6462 17.0801H26.9319C26.5651 17.6965 26.5497 18.3077 26.9471 19.2246L29.4891 25.1846L32.0614 19.2246C32.4435 18.3128 32.4079 17.6965 32.0259 17.0801H34.8173C34.4353 17.5946 34.1194 18.2415 33.5896 19.3877L29.2393 29Z" fill="var(--fill-0, white)"/>
<path d="M36.2284 26.5294V19.2552C36.2284 18.1906 36.0297 17.727 35.4643 17.0801H43.0697L43.4363 19.3367C42.392 18.6235 41.6431 18.3587 40.4155 18.3587H38.159V22.1282H39.0554C39.9673 22.1282 40.6345 21.8786 41.2967 21.5628L41.7452 23.8398C40.7977 23.4425 40.2015 23.2896 39.0044 23.2896H38.159V27.5074H40.7162C41.8267 27.5074 42.7232 27.1101 43.7522 26.4275L43.4057 28.7045H35.5051C36.0552 28.0729 36.2334 27.594 36.2334 26.5294H36.2284Z" fill="var(--fill-0, white)"/>
<path d="M45.5604 26.5804V19.2399C45.5604 18.1753 45.3465 17.7117 44.7963 17.0801H49.3453C51.8516 17.0801 53.3949 18.323 53.3949 20.3352C53.3949 21.8277 52.4833 22.9585 51.0723 23.4221L53.3136 27.0235C53.8128 27.8182 54.2254 28.3174 54.6736 28.6994H52.152L49.1824 23.7532H47.4911V26.5753C47.4911 27.589 47.6388 28.1034 48.138 28.6994H44.8983C45.3975 28.1034 45.5604 27.589 45.5604 26.5753V26.5804ZM47.4861 18.374V22.5255H48.9785C50.5067 22.5255 51.4695 21.7615 51.4695 20.4014C51.4695 19.0413 50.5374 18.374 49.0143 18.374H47.4861Z" fill="var(--fill-0, white)"/>
<path d="M65.1673 28.9541L57.348 21.0024V21.033L57.3989 26.5804C57.3989 27.5941 57.5824 28.0932 58.0969 28.7045H55.2084C55.7229 28.0881 55.9217 27.5941 55.9217 26.5804V16.8356L63.7256 24.772V24.7058L63.69 19.2093C63.6748 18.1956 63.5066 17.6965 62.9921 17.0852H65.8652C65.3507 17.7016 65.1673 18.1956 65.1673 19.2093V28.9541Z" fill="var(--fill-0, white)"/>
<path d="M66.3592 28.7045C66.7412 28.19 67.0571 27.5431 67.5869 26.397L71.9523 16.7846L76.3026 26.397C76.8324 27.5431 77.1483 28.19 77.5303 28.7045H74.2904C74.6724 28.0881 74.6877 27.4769 74.2904 26.56L73.9442 25.7653H69.4461L69.0997 26.56C68.7176 27.4718 68.7534 28.0881 69.1355 28.7045H66.3592ZM73.4144 24.502L71.7029 20.4981L69.9759 24.502H73.4144Z" fill="var(--fill-0, white)"/>
<path d="M88.1105 28.9541L80.2912 21.0024V21.033L80.3422 26.5804C80.3422 27.5941 80.5254 28.0932 81.0399 28.7045H78.1517C78.6661 28.0881 78.8648 27.5941 78.8648 26.5804V16.8356L86.6689 24.772V24.7058L86.6331 19.2093C86.6178 18.1956 86.4499 17.6965 85.9354 17.0852H88.8082C88.2937 17.7016 88.1105 18.1956 88.1105 19.2093V28.9541Z" fill="var(--fill-0, white)"/>
<path d="M95.7462 16.8967C97.6718 16.8967 98.3849 17.6455 99.2814 17.1769L99.6993 19.9836C98.7213 18.9699 97.5751 18.2721 96.1131 18.2721C93.7546 18.2721 92.0939 20.1976 92.0939 22.9025C92.0939 25.7755 93.9532 27.5329 96.2099 27.5329C97.57 27.5329 98.7518 26.9828 99.7299 26.2696L99.5617 27.8284C98.6296 28.4753 97.3052 28.8727 95.9094 28.8727C92.5576 28.8727 90.0155 26.4173 90.0155 22.9636C90.0155 19.5099 92.5219 16.8865 95.7413 16.8865L95.7462 16.8967Z" fill="var(--fill-0, white)"/>
<path d="M101.569 26.5294V19.2552C101.569 18.1906 101.37 17.727 100.805 17.0801H108.41L108.777 19.3367C107.732 18.6235 106.983 18.3587 105.756 18.3587H103.499V22.1282H104.396C105.308 22.1282 105.975 21.8786 106.637 21.5628L107.086 23.8398C106.138 23.4425 105.542 23.2896 104.345 23.2896H103.499V27.5074H106.057C107.167 27.5074 108.064 27.1101 109.093 26.4275L108.746 28.7045H100.845C101.396 28.0729 101.574 27.594 101.574 26.5294H101.569Z" fill="var(--fill-0, white)"/>
</g>
</svg>
