<svg preserveAspectRatio="none" width="100%" height="100%" overflow="visible" style="display: block;" viewBox="0 0 110.825 29" fill="none" xmlns="http://www.w3.org/2000/svg">
<g id="Vector">
<path d="M5.71866 0.111817C7.64013 0.111817 8.35176 0.85908 9.24641 0.391421L9.66315 3.1923C8.68716 2.18073 7.54341 1.48433 6.08452 1.48433C3.73097 1.48433 2.07376 3.40579 2.07376 6.105C2.07376 8.97195 3.92919 10.7257 6.18107 10.7257C7.5383 10.7257 8.71769 10.1767 9.69368 9.46502L9.52589 11.0205C8.59566 11.6661 7.27405 12.0626 5.88124 12.0626C2.53646 12.0626 0 9.61244 0 6.16599C0 2.71954 2.50083 0.101702 5.71345 0.101702L5.71866 0.111817Z" fill="var(--fill-0, #B89362)"/>
<path d="M11.5339 9.77509V2.41963C11.5339 1.40807 11.366 0.894698 10.8729 0.299957H14.1363C13.6382 0.894698 13.491 1.40807 13.491 2.41963V9.77509C13.491 10.7867 13.6382 11.3001 14.1363 11.8948H10.8729C11.3711 11.3001 11.5339 10.7867 11.5339 9.77509Z" fill="var(--fill-0, #B89362)"/>
<path d="M18.9706 9.77509V1.55551H17.9287C16.7188 1.55551 15.9561 1.76898 14.8988 2.5518L15.28 0.299957H24.6079L24.9891 2.5518C23.9115 1.77407 23.1642 1.55551 21.9595 1.55551H20.9327V9.77509C20.9327 10.7867 21.1006 11.2848 21.614 11.8948H18.2843C18.7977 11.2798 18.9808 10.7867 18.9808 9.77509H18.9706Z" fill="var(--fill-0, #B89362)"/>
<path d="M26.4074 9.77509V2.41963C26.4074 1.40807 26.2397 0.894698 25.7466 0.299957H29.0101C28.5119 0.894698 28.3645 1.40807 28.3645 2.41963V9.77509C28.3645 10.7867 28.5119 11.3001 29.0101 11.8948H25.7466C26.2448 11.3001 26.4074 10.7867 26.4074 9.77509Z" fill="var(--fill-0, #B89362)"/>
<path d="M31.2263 9.72427V2.46537C31.2263 1.40297 31.028 0.940442 30.4638 0.294869H38.0532L38.419 2.54672C37.377 1.83506 36.6299 1.57077 35.4048 1.57077H33.1529V5.33233H34.0476C34.9575 5.33233 35.6234 5.08326 36.2842 4.7681L36.7315 7.03527C35.786 6.63878 35.1913 6.48624 33.9968 6.48624H33.1529V10.6952H35.7047C36.8128 10.6952 37.7074 10.2987 38.7343 9.61754L38.3888 11.8897H30.5045C31.0535 11.2594 31.2315 10.7816 31.2315 9.71918L31.2263 9.72427Z" fill="var(--fill-0, #B89362)"/>
<path d="M39.9594 11.8287L39.4307 9.16004C40.9049 10.3343 42.1146 10.8985 43.3092 10.8985C44.3513 10.8985 45.2155 10.2173 45.2003 9.14477C45.1647 6.62856 39.6646 7.10643 39.6189 3.27874C39.568 1.52501 40.9455 0.147434 42.9178 0.147434C44.3614 0.147434 45.1543 0.828583 46.0337 0.330424L46.4813 2.83141C45.307 1.90117 44.0973 1.34199 43.1009 1.34199C42.1046 1.34199 41.4285 2.02315 41.4285 2.93305C41.4794 5.53568 46.9794 4.97145 47.0454 8.73306C47.0607 10.7359 45.4695 12.0474 43.3854 12.0474C41.6977 12.0474 40.8997 11.2543 39.9745 11.8338L39.9594 11.8287Z" fill="var(--fill-0, #B89362)"/>
<path d="M53.4606 11.8948H50.6953C51.0765 11.3814 51.3915 10.7358 51.9202 9.5921L56.2767 0L60.6178 9.5921C61.1465 10.7358 61.4615 11.3814 61.8427 11.8948H58.6098C58.9911 11.2798 59.0063 10.6698 58.6098 9.7548L58.2641 8.96178H53.7758L53.43 9.7548C53.0488 10.6647 53.0844 11.2798 53.4606 11.8948ZM57.7354 7.70114L56.0275 3.7108L54.3042 7.70114H57.7354Z" fill="var(--fill-0, #B89362)"/>
<path d="M72.3957 12.1439L64.5928 4.20895V4.24451L64.6437 9.78018C64.6437 10.7917 64.8268 11.2899 65.3402 11.8999H62.4578C62.9712 11.2848 63.1696 10.7917 63.1696 9.78018V0.0559084L70.9571 7.97566V7.90958L70.9216 2.42472C70.9063 1.41316 70.7385 0.914974 70.2251 0.304983H73.0922C72.5787 0.920057 72.3957 1.41316 72.3957 2.42472V12.149V12.1439Z" fill="var(--fill-0, #B89362)"/>
<path d="M75.1964 9.72427V2.46537C75.1964 1.40297 74.9982 0.940442 74.434 0.294869H78.7751C82.4706 0.294869 85.0021 2.7145 85.0021 6.01353C85.0021 9.49048 82.3334 11.8948 78.7751 11.8948H74.4697C75.0187 11.2645 75.1964 10.7867 75.1964 9.72427ZM77.1486 1.60633V10.6189H78.7038C81.154 10.6189 82.9129 8.79911 82.9129 6.09482C82.9129 3.39053 81.1591 1.60633 78.7038 1.60633H77.1486Z" fill="var(--fill-0, #B89362)"/>
<path d="M5.71866 16.9679C7.64013 16.9679 8.35176 17.7152 9.24641 17.2475L9.66315 20.0484C8.68716 19.0368 7.54341 18.3404 6.08452 18.3404C3.73097 18.3404 2.07376 20.2619 2.07376 22.9611C2.07376 25.828 3.92919 27.5818 6.18107 27.5818C7.5383 27.5818 8.71769 27.0328 9.69368 26.3211L9.52589 27.8766C8.59566 28.5222 7.27405 28.9186 5.88124 28.9186C2.53646 28.9186 0 26.4685 0 23.0221C0 19.5756 2.50083 16.9577 5.71345 16.9577L5.71866 16.9679Z" fill="var(--fill-0, #B89362)"/>
<path d="M16.1036 28.9644C12.891 28.9644 10.3038 26.4787 10.3038 22.9509C10.3038 19.4231 12.8859 16.9374 16.1545 16.9374C19.423 16.9374 21.9392 19.4231 21.9392 22.9509C21.9392 26.4787 19.357 28.9644 16.1088 28.9644H16.1036ZM16.1036 27.6021C18.2386 27.6021 19.85 25.8636 19.85 22.9611C19.85 20.0585 18.2437 18.3201 16.1545 18.3201C14.0653 18.3201 12.4081 20.0433 12.4081 22.9611C12.4081 25.8789 14.0144 27.6021 16.1036 27.6021Z" fill="var(--fill-0, #B89362)"/>
<path d="M23.8556 16.8663L29.4573 24.42L34.9727 16.8663V26.6261C34.9727 27.6377 35.1403 28.1511 35.6334 28.7458H32.37C32.8682 28.1511 33.031 27.6377 33.031 26.6261L33.0816 21.8885V21.6395L32.8987 21.9393L29.1371 27.109L25.3602 21.858L25.2281 21.6445V21.8936L25.279 26.6312C25.279 27.6428 25.4618 28.1409 25.9752 28.7509H23.144C23.6574 28.1359 23.8556 27.6428 23.8556 26.6312V16.8663Z" fill="var(--fill-0, #B89362)"/>
<path d="M37.7074 16.8663L43.3092 24.42L48.8246 16.8663V26.6261C48.8246 27.6377 48.9922 28.1511 49.4853 28.7458H46.2219C46.72 28.1511 46.8829 27.6377 46.8829 26.6261L46.9335 21.8885V21.6395L46.7506 21.9393L42.989 27.109L39.2121 21.858L39.08 21.6445V21.8936L39.1309 26.6312C39.1309 27.6428 39.3137 28.1409 39.8271 28.7509H36.9958C37.5092 28.1359 37.7074 27.6428 37.7074 26.6312V16.8663Z" fill="var(--fill-0, #B89362)"/>
<path d="M51.4729 19.2706C51.4729 18.2591 51.3052 17.7456 50.8273 17.1509H54.0908C53.5926 17.7456 53.43 18.2591 53.43 19.2706V24.4047C53.43 26.4736 54.6704 27.5208 56.2971 27.5208C57.9237 27.5208 59.1638 26.4787 59.1638 24.3895V19.2706C59.1638 18.2591 58.981 17.7609 58.4676 17.1509H61.3498C60.8364 17.766 60.6533 18.2591 60.6533 19.2706V24.359C60.6533 27.3225 58.7472 28.9492 56.0632 28.9492C53.3793 28.9492 51.4729 27.3276 51.4729 24.4759V19.2706Z" fill="var(--fill-0, #B89362)"/>
<path d="M72.5126 28.9949L64.7097 21.06V21.0955L64.7606 26.6312C64.7606 27.6428 64.9437 28.1409 65.4571 28.7509H62.5747C63.0881 28.1359 63.2865 27.6428 63.2865 26.6312V16.9069L71.074 24.8267V24.7606L71.0385 19.2757C71.0232 18.2642 70.8554 17.766 70.342 17.156H73.2091C72.6957 17.7711 72.5126 18.2642 72.5126 19.2757V29V28.9949Z" fill="var(--fill-0, #B89362)"/>
<path d="M75.3133 26.6261V19.2706C75.3133 18.2591 75.1457 17.7456 74.6526 17.1509H77.916C77.4179 17.7456 77.2705 18.2591 77.2705 19.2706V26.6261C77.2705 27.6377 77.4179 28.1511 77.916 28.7458H74.6526C75.1508 28.1511 75.3133 27.6377 75.3133 26.6261Z" fill="var(--fill-0, #B89362)"/>
<path d="M82.7503 26.6261V18.4065H81.7081C80.4983 18.4065 79.7358 18.62 78.6785 19.4028L79.0598 17.1509H88.3876L88.7688 19.4028C87.6912 18.6251 86.944 18.4065 85.7392 18.4065H84.7124V26.6261C84.7124 27.6377 84.8801 28.1358 85.3935 28.7458H82.0641C82.5775 28.1308 82.7603 27.6377 82.7603 26.6261H82.7503Z" fill="var(--fill-0, #B89362)"/>
<path d="M90.1871 26.6261V19.2706C90.1871 18.2591 90.0192 17.7456 89.5261 17.1509H92.7898C92.2916 17.7456 92.1442 18.2591 92.1442 19.2706V26.6261C92.1442 27.6377 92.2916 28.1511 92.7898 28.7458H89.5261C90.0243 28.1511 90.1871 27.6377 90.1871 26.6261Z" fill="var(--fill-0, #B89362)"/>
<path d="M95.006 26.5753V19.3164C95.006 18.254 94.8078 17.7914 94.2435 17.1458H101.833L102.199 19.3977C101.157 18.6861 100.409 18.4217 99.1843 18.4217H96.9326V22.1833H97.8271C98.737 22.1833 99.4029 21.9343 100.064 21.6191L100.511 23.8862C99.5657 23.4897 98.9708 23.3372 97.7762 23.3372H96.9326V27.5462H99.4844C100.593 27.5462 101.487 27.1497 102.514 26.4685L102.168 28.7357H94.2842C94.8332 28.1053 95.011 27.6275 95.011 26.5651L95.006 26.5753Z" fill="var(--fill-0, #B89362)"/>
<path d="M103.739 28.6798L103.21 26.011C104.685 27.1853 105.894 27.7495 107.089 27.7495C108.131 27.7495 108.995 27.0683 108.98 25.9907C108.944 23.4745 103.444 23.9523 103.398 20.1247C103.348 18.3709 104.725 16.9934 106.697 16.9934C108.141 16.9934 108.934 17.6745 109.813 17.1763L110.261 19.6773C109.087 18.7471 107.877 18.1879 106.88 18.1879C105.884 18.1879 105.208 18.8691 105.208 19.779C105.259 22.3816 110.759 21.8174 110.825 25.579C110.84 27.5818 109.249 28.8933 107.165 28.8933C105.477 28.8933 104.679 28.1003 103.754 28.6798H103.739Z" fill="var(--fill-0, #B89362)"/>
</g>
</svg>
