<svg preserveAspectRatio="none" width="100%" height="100%" overflow="visible" style="display: block;" viewBox="0 0 126.184 40.315" fill="none" xmlns="http://www.w3.org/2000/svg">
<g id="Vector">
<path d="M16.1139 19.4841L3.4669 6.69876V6.75123L3.54896 15.6654C3.54896 17.292 3.84221 18.0965 4.67518 19.0818H0C0.832972 18.0965 1.15558 17.292 1.15558 15.6654V3.94235e-08L13.7792 12.7562V12.6513L13.7265 3.8187C13.6972 2.19211 13.4331 1.38756 12.6002 0.402277H17.2461C16.4131 1.38756 16.1198 2.19211 16.1198 3.8187V19.4841H16.1139Z" fill="var(--fill-0, white)"/>
<path d="M25.6755 15.6654V11.7942L20.7598 3.78955C19.7392 2.11049 19.1466 1.22432 18.4779 0.402276H23.8746C23.2587 1.23015 23.2821 2.08134 24.033 3.31149L27.8225 9.60796L31.5532 3.31149C32.3041 2.08134 32.2806 1.23015 31.6881 0.402276H36.1464C35.4483 1.23015 34.8324 2.11049 33.8352 3.78955L28.8373 11.905V15.6712C28.8373 17.2978 29.1306 18.1024 29.9929 19.0877H24.5669C25.3998 18.1024 25.6696 17.2978 25.6696 15.6712L25.6755 15.6654Z" fill="var(--fill-0, white)"/>
<path d="M36.3047 19.0818L46.3766 2.42531H41.7835C39.8242 2.42531 38.6687 2.79844 36.9499 3.99943L37.5659 0.39645H50.9932L40.8977 17.1346H46.0833C47.8314 17.1346 49.333 16.5224 50.999 15.4264L50.4358 19.0818H36.3047Z" fill="var(--fill-0, white)"/>
<path d="M53.8675 15.6654V3.81287C53.8675 2.18628 53.5976 1.35841 52.794 0.39645H58.0851C57.2815 1.35841 57.0351 2.18628 57.0351 3.81287V8.45943H65.224V3.81287C65.224 2.18628 64.9543 1.35841 64.1506 0.39645H69.4711C68.6675 1.35841 68.3976 2.18628 68.3976 3.81287V15.6654C68.3976 17.292 68.6675 18.1199 69.4711 19.0818H64.1506C64.9543 18.1199 65.224 17.292 65.224 15.6654V10.5932H57.0351V15.6654C57.0351 17.292 57.2756 18.1199 58.0851 19.0818H52.794C53.5976 18.1199 53.8675 17.292 53.8675 15.6654Z" fill="var(--fill-0, white)"/>
<path d="M88.1895 19.4841L75.5423 6.69876V6.75123L75.6245 15.6654C75.6245 17.292 75.9178 18.0965 76.7508 19.0818H72.0756C72.9086 18.0965 73.2312 17.292 73.2312 15.6654V0L85.8548 12.7562V12.6513L85.802 3.8187C85.7726 2.19211 85.5087 1.38756 84.6757 0.402276H89.3216C88.4886 1.38756 88.1953 2.19211 88.1953 3.8187V19.4841H88.1895Z" fill="var(--fill-0, white)"/>
<path d="M97.7452 15.6654V11.7942L92.8294 3.78955C91.8087 2.11049 91.2163 1.22432 90.5476 0.402276H95.9443C95.3284 1.23015 95.3518 2.08134 96.1027 3.31149L99.8921 9.60796L103.623 3.31149C104.374 2.08134 104.35 1.23015 103.758 0.402276H108.216C107.518 1.23015 106.902 2.11049 105.905 3.78955L100.907 11.905V15.6712C100.907 17.2978 101.2 18.1024 102.062 19.0877H96.6364C97.4694 18.1024 97.7393 17.2978 97.7393 15.6712L97.7452 15.6654Z" fill="var(--fill-0, white)"/>
<path d="M115.713 15.6654V11.7942L110.797 3.78955C109.776 2.11049 109.184 1.22432 108.515 0.402276H113.912C113.296 1.23015 113.319 2.08134 114.07 3.31149L117.86 9.60796L121.59 3.31149C122.341 2.08134 122.318 1.23015 121.725 0.402276H126.184C125.485 1.23015 124.87 2.11049 123.872 3.78955L118.875 11.905V15.6712C118.875 17.2978 119.168 18.1024 120.03 19.0877H114.604C115.437 18.1024 115.707 17.2978 115.707 15.6712L115.713 15.6654Z" fill="var(--fill-0, white)"/>
<path d="M0.639445 39.9768L0 36.7703C1.78326 38.1811 3.24389 38.8574 4.68693 38.8574C5.94812 38.8574 6.99234 38.0412 6.96888 36.7469C6.92782 33.7211 0.281642 34.2983 0.222982 29.7042C0.164322 27.5937 1.82442 25.9438 4.20602 25.9438C5.94822 25.9438 6.9102 26.76 7.97194 26.1654L8.51157 29.1679C7.092 28.0543 5.62552 27.378 4.42886 27.378C3.23219 27.378 2.40512 28.1942 2.40512 29.2903C2.46378 32.4152 9.11586 31.7389 9.19212 36.2572C9.20971 38.665 7.29151 40.2392 4.76913 40.2392C2.72776 40.2392 1.76572 39.283 0.645317 39.9826L0.639445 39.9768Z" fill="var(--fill-0, white)"/>
<path d="M17.6039 25.9088C19.9268 25.9088 20.7891 26.8067 21.8685 26.247L22.3671 29.6109C21.1881 28.3983 19.8036 27.5588 18.0438 27.5588C15.1988 27.5588 13.1985 29.8675 13.1985 33.109C13.1985 36.5546 15.4393 38.6592 18.167 38.6592C19.8095 38.6592 21.229 38.0004 22.414 37.1492L22.2146 39.0207C21.0942 39.7961 19.4928 40.2741 17.8092 40.2741C13.7617 40.2741 10.6996 37.33 10.6996 33.1906C10.6996 29.0513 13.7206 25.9088 17.6097 25.9088H17.6039Z" fill="var(--fill-0, white)"/>
<path d="M24.8308 37.5107V28.6723C24.8308 27.4596 24.6313 26.8417 24.0271 26.1246H27.9692C27.3708 26.8417 27.189 27.4596 27.189 28.6723V32.1354H33.2954V28.6723C33.2954 27.4596 33.096 26.8417 32.4918 26.1246H36.4573C35.8589 26.8417 35.6535 27.4596 35.6535 28.6723V37.5107C35.6535 38.7233 35.8531 39.3413 36.4573 40.0584H32.4918C33.0902 39.3413 33.2954 38.7233 33.2954 37.5107V33.727H27.189V37.5107C27.189 38.7233 27.3708 39.3413 27.9692 40.0584H24.0271C24.6254 39.3413 24.8308 38.7233 24.8308 37.5107Z" fill="var(--fill-0, white)"/>
<path d="M45.2739 40.315C41.3906 40.315 38.2639 37.33 38.2639 33.0915C38.2639 28.853 41.3905 25.868 45.3325 25.868C49.2744 25.868 52.3188 28.853 52.3188 33.0915C52.3188 37.33 49.1924 40.315 45.268 40.315H45.2739ZM45.2739 38.6825C47.8549 38.6825 49.7965 36.5954 49.7965 33.109C49.7965 29.6226 47.8548 27.5354 45.3325 27.5354C42.8101 27.5354 40.8039 29.6051 40.8039 33.109C40.8039 36.6129 42.7456 38.6825 45.268 38.6825H45.2739Z" fill="var(--fill-0, white)"/>
<path d="M61.0475 40.315C57.1642 40.315 54.0376 37.33 54.0376 33.0915C54.0376 28.853 57.1642 25.868 61.1062 25.868C65.0481 25.868 68.0925 28.853 68.0925 33.0915C68.0925 37.33 64.966 40.315 61.0416 40.315H61.0475ZM61.0475 38.6825C63.6285 38.6825 65.5701 36.5954 65.5701 33.109C65.5701 29.6226 63.6286 27.5354 61.1062 27.5354C58.5838 27.5354 56.5834 29.6051 56.5834 33.109C56.5834 36.6129 58.5251 38.6825 61.0475 38.6825Z" fill="var(--fill-0, white)"/>
<path d="M70.697 37.4524V28.6781C70.697 27.4655 70.4976 26.8475 69.8934 26.1304H73.8763C73.2545 26.865 73.0552 27.4655 73.0552 28.6781V38.5893H76.0761C77.4194 38.5893 78.5574 38.152 79.7599 37.3358L79.3611 40.0643H69.8112C70.4506 39.3297 70.6911 38.7292 70.6911 37.4582L70.697 37.4524Z" fill="var(--fill-0, white)"/>
</g>
</svg>
